<svg xmlns="http://www.w3.org/2000/svg" viewBox="0 0 32 32" width="32" height="32">
  <!-- Background -->
  <rect width="32" height="32" fill="#2c2416"/>
  <!-- Pixel "A" in honey gold -->
  <!-- Row 1 (top) -->
  <rect x="12" y="4" width="8" height="2" fill="#c9a86c"/>
  <!-- Row 2 -->
  <rect x="10" y="6" width="4" height="2" fill="#c9a86c"/>
  <rect x="18" y="6" width="4" height="2" fill="#c9a86c"/>
  <!-- Row 3 -->
  <rect x="8" y="8" width="4" height="2" fill="#c9a86c"/>
  <rect x="20" y="8" width="4" height="2" fill="#c9a86c"/>
  <!-- Row 4 -->
  <rect x="8" y="10" width="4" height="2" fill="#c9a86c"/>
  <rect x="20" y="10" width="4" height="2" fill="#c9a86c"/>
  <!-- Row 5 (crossbar) -->
  <rect x="8" y="12" width="4" height="2" fill="#c9a86c"/>
  <rect x="12" y="12" width="8" height="2" fill="#d4b87a"/>
  <rect x="20" y="12" width="4" height="2" fill="#c9a86c"/>
  <!-- Row 6 -->
  <rect x="6" y="14" width="4" height="2" fill="#c9a86c"/>
  <rect x="22" y="14" width="4" height="2" fill="#c9a86c"/>
  <!-- Row 7 -->
  <rect x="6" y="16" width="4" height="2" fill="#c9a86c"/>
  <rect x="22" y="16" width="4" height="2" fill="#c9a86c"/>
  <!-- Row 8 -->
  <rect x="4" y="18" width="4" height="2" fill="#c9a86c"/>
  <rect x="24" y="18" width="4" height="2" fill="#c9a86c"/>
  <!-- Row 9 -->
  <rect x="4" y="20" width="4" height="2" fill="#c9a86c"/>
  <rect x="24" y="20" width="4" height="2" fill="#c9a86c"/>
  <!-- Row 10 (base serifs) -->
  <rect x="2" y="22" width="6" height="2" fill="#c9a86c"/>
  <rect x="24" y="22" width="6" height="2" fill="#c9a86c"/>
  <!-- Pixel accent dot -->
  <rect x="14" y="26" width="4" height="2" fill="#a88a5c"/>
</svg>
